<?xml version="1.0" encoding="utf-8"?>
<!-- Generator: Adobe Illustrator 24.1.2, SVG Export Plug-In . SVG Version: 6.00 Build 0)  -->
<svg version="1.1" id="Capa_1" xmlns="http://www.w3.org/2000/svg" xmlns:xlink="http://www.w3.org/1999/xlink" x="0px" y="0px"
	 viewBox="0 0 80 80" style="enable-background:new 0 0 80 80;" xml:space="preserve">
<style type="text/css">
	.st0{fill:#280000;}
</style>
<g>
	<path class="st0" d="M57,61.3L18.7,23c-1.2-1.2-1.2-3.1,0-4.2c1.2-1.2,3.1-1.2,4.2,0L61.2,57c1.2,1.2,1.2,3.1,0,4.2
		C60.1,62.5,58.2,62.5,57,61.3z"/>
	<path class="st0" d="M18.7,61.3c-1.2-1.2-1.2-3.1,0-4.2L57,18.7c1.2-1.2,3.1-1.2,4.2,0c1.2,1.2,1.2,3.1,0,4.2L22.9,61.3
		C21.7,62.5,19.8,62.5,18.7,61.3z"/>
</g>
<path class="st0" d="M0,0v80h80V0H0z M75,75H5V5h70V75z"/>
</svg>
