<?xml version="1.0" encoding="utf-8"?>
<!-- Generator: Adobe Illustrator 24.1.2, SVG Export Plug-In . SVG Version: 6.00 Build 0)  -->
<svg version="1.1" id="Capa_1" xmlns="http://www.w3.org/2000/svg" xmlns:xlink="http://www.w3.org/1999/xlink" x="0px" y="0px"
	 viewBox="0 0 80 80" style="enable-background:new 0 0 80 80;" xml:space="preserve">
<style type="text/css">
	.st0{fill:#FFFFFF;}
</style>
<g>
	<path class="st0" d="M60.1,57.8H19.9c-1.7,0-3-1.3-3-3s1.3-3,3-3h40.2c1.7,0,3,1.3,3,3S61.7,57.8,60.1,57.8z"/>
	<path class="st0" d="M60.1,43H19.9c-1.7,0-3-1.3-3-3s1.3-3,3-3h40.2c1.7,0,3,1.3,3,3C63.1,41.7,61.7,43,60.1,43z"/>
	<path class="st0" d="M60.1,28.2H19.9c-1.7,0-3-1.3-3-3c0-1.7,1.3-3,3-3h40.2c1.7,0,3,1.3,3,3C63.1,26.8,61.7,28.2,60.1,28.2z"/>
</g>
<g>
	<path class="st0" d="M75,5v70H5V5H75 M80,0H0v80h80V0L80,0z"/>
</g>
</svg>
